<svg xmlns="http://www.w3.org/2000/svg" xmlns:xlink="http://www.w3.org/1999/xlink" width="500" zoomAndPan="magnify" viewBox="0 0 375 374.999991" height="500" preserveAspectRatio="xMidYMid meet" version="1.0"><defs><clipPath id="d959bbe60b"><path d="M 112.5 112.5 L 262.5 112.5 L 262.5 262.5 L 112.5 262.5 Z M 112.5 112.5 " clip-rule="nonzero"/></clipPath></defs><rect x="-37.5" width="450" fill="#ffffff" y="-37.499999" height="449.999989" fill-opacity="1"/><rect x="-37.5" width="450" fill="#ffffff" y="-37.499999" height="449.999989" fill-opacity="1"/><g clip-path="url(#d959bbe60b)"><path fill="#ffffff" d="M 112.5 112.5 L 262.5 112.5 L 262.5 262.5 L 112.5 262.5 Z M 112.5 112.5 " fill-opacity="1" fill-rule="nonzero"/></g><path stroke-linecap="butt" transform="matrix(4.545454, 0, 0, 4.545454, 112.499997, 112.499993)" fill-opacity="1" fill="#ffffff" fill-rule="nonzero" stroke-linejoin="miter" d="M 1.999766 2.499924 L 9.000236 2.499924 M 9.999689 2.499924 L 11.000001 2.499924 M 12.000314 2.499924 L 12.999767 2.499924 M 14.00008 2.499924 L 15.000392 2.499924 M 17.000158 2.499924 L 18.999924 2.499924 M 20.000236 2.499924 L 20.999689 2.499924 M 22.000002 2.499924 L 23.000315 2.499924 M 23.999768 2.499924 L 31.000237 2.499924 M 1.999766 3.500236 L 3.000079 3.500236 M 7.999923 3.500236 L 9.000236 3.500236 M 9.999689 3.500236 L 11.000001 3.500236 M 12.000314 3.500236 L 15.000392 3.500236 M 15.999845 3.500236 L 17.999611 3.500236 M 20.000236 3.500236 L 20.999689 3.500236 M 23.999768 3.500236 L 25.00008 3.500236 M 29.999924 3.500236 L 31.000237 3.500236 M 1.999766 4.499689 L 3.000079 4.499689 M 4.000392 4.499689 L 6.99961 4.499689 M 7.999923 4.499689 L 9.000236 4.499689 M 15.000392 4.499689 L 17.999611 4.499689 M 20.000236 4.499689 L 23.000315 4.499689 M 23.999768 4.499689 L 25.00008 4.499689 M 26.000393 4.499689 L 28.999612 4.499689 M 29.999924 4.499689 L 31.000237 4.499689 M 1.999766 5.500002 L 3.000079 5.500002 M 4.000392 5.500002 L 6.99961 5.500002 M 7.999923 5.500002 L 9.000236 5.500002 M 9.999689 5.500002 L 11.000001 5.500002 M 14.00008 5.500002 L 15.000392 5.500002 M 17.999611 5.500002 L 20.000236 5.500002 M 20.999689 5.500002 L 22.000002 5.500002 M 23.999768 5.500002 L 25.00008 5.500002 M 26.000393 5.500002 L 28.999612 5.500002 M 29.999924 5.500002 L 31.000237 5.500002 M 1.999766 6.500315 L 3.000079 6.500315 M 4.000392 6.500315 L 6.99961 6.500315 M 7.999923 6.500315 L 9.000236 6.500315 M 12.999767 6.500315 L 15.999845 6.500315 M 18.999924 6.500315 L 22.000002 6.500315 M 23.999768 6.500315 L 25.00008 6.500315 M 26.000393 6.500315 L 28.999612 6.500315 M 29.999924 6.500315 L 31.000237 6.500315 M 1.999766 7.499768 L 3.000079 7.499768 M 7.999923 7.499768 L 9.000236 7.499768 M 14.00008 7.499768 L 15.000392 7.499768 M 15.999845 7.499768 L 17.000158 7.499768 M 18.999924 7.499768 L 20.000236 7.499768 M 20.999689 7.499768 L 23.000315 7.499768 M 23.999768 7.499768 L 25.00008 7.499768 M 29.999924 7.499768 L 31.000237 7.499768 M 1.999766 8.50008 L 9.000236 8.50008 M 9.999689 8.50008 L 11.000001 8.50008 M 12.000314 8.50008 L 12.999767 8.50008 M 14.00008 8.50008 L 15.000392 8.50008 M 15.999845 8.50008 L 17.000158 8.50008 M 17.999611 8.50008 L 18.999924 8.50008 M 20.000236 8.50008 L 20.999689 8.50008 M 22.000002 8.50008 L 23.000315 8.50008 M 23.999768 8.50008 L 31.000237 8.50008 M 9.999689 9.500393 L 11.000001 9.500393 M 12.000314 9.500393 L 12.999767 9.500393 M 14.00008 9.500393 L 17.000158 9.500393 M 18.999924 9.500393 L 20.000236 9.500393 M 22.000002 9.500393 L 23.000315 9.500393 M 1.999766 10.499846 L 3.000079 10.499846 M 4.000392 10.499846 L 6.000157 10.499846 M 6.99961 10.499846 L 9.999689 10.499846 M 11.000001 10.499846 L 12.999767 10.499846 M 15.000392 10.499846 L 17.000158 10.499846 M 17.999611 10.499846 L 22.000002 10.499846 M 23.999768 10.499846 L 25.00008 10.499846 M 26.999846 10.499846 L 28.000159 10.499846 M 28.999612 10.499846 L 31.000237 10.499846 M 4.000392 11.500159 L 7.999923 11.500159 M 9.000236 11.500159 L 11.000001 11.500159 M 12.999767 11.500159 L 15.000392 11.500159 M 17.000158 11.500159 L 18.999924 11.500159 M 20.000236 11.500159 L 23.000315 11.500159 M 23.999768 11.500159 L 26.999846 11.500159 M 29.999924 11.500159 L 31.000237 11.500159 M 6.000157 12.499612 L 6.99961 12.499612 M 7.999923 12.499612 L 9.000236 12.499612 M 11.000001 12.499612 L 12.999767 12.499612 M 15.999845 12.499612 L 17.999611 12.499612 M 18.999924 12.499612 L 20.999689 12.499612 M 23.000315 12.499612 L 23.999768 12.499612 M 25.00008 12.499612 L 26.000393 12.499612 M 28.000159 12.499612 L 29.999924 12.499612 M 3.000079 13.499924 L 6.000157 13.499924 M 9.000236 13.499924 L 11.000001 13.499924 M 12.000314 13.499924 L 12.999767 13.499924 M 14.00008 13.499924 L 17.999611 13.499924 M 20.000236 13.499924 L 20.999689 13.499924 M 23.000315 13.499924 L 25.00008 13.499924 M 26.000393 13.499924 L 26.999846 13.499924 M 29.999924 13.499924 L 31.000237 13.499924 M 4.999845 14.500237 L 6.000157 14.500237 M 7.999923 14.500237 L 9.999689 14.500237 M 11.000001 14.500237 L 12.000314 14.500237 M 12.999767 14.500237 L 14.00008 14.500237 M 18.999924 14.500237 L 20.000236 14.500237 M 22.000002 14.500237 L 23.000315 14.500237 M 26.999846 14.500237 L 28.999612 14.500237 M 1.999766 15.49969 L 3.000079 15.49969 M 4.999845 15.49969 L 6.000157 15.49969 M 6.99961 15.49969 L 7.999923 15.49969 M 9.000236 15.49969 L 11.000001 15.49969 M 12.000314 15.49969 L 15.999845 15.49969 M 18.999924 15.49969 L 20.000236 15.49969 M 23.999768 15.49969 L 25.00008 15.49969 M 28.000159 15.49969 L 31.000237 15.49969 M 1.999766 16.500003 L 6.99961 16.500003 M 7.999923 16.500003 L 9.999689 16.500003 M 11.000001 16.500003 L 12.000314 16.500003 M 14.00008 16.500003 L 15.000392 16.500003 M 15.999845 16.500003 L 17.000158 16.500003 M 17.999611 16.500003 L 18.999924 16.500003 M 20.000236 16.500003 L 23.000315 16.500003 M 23.999768 16.500003 L 25.00008 16.500003 M 28.000159 16.500003 L 31.000237 16.500003 M 1.999766 17.500315 L 3.000079 17.500315 M 4.000392 17.500315 L 4.999845 17.500315 M 6.000157 17.500315 L 7.999923 17.500315 M 9.999689 17.500315 L 12.000314 17.500315 M 14.00008 17.500315 L 15.999845 17.500315 M 17.000158 17.500315 L 18.999924 17.500315 M 20.999689 17.500315 L 26.999846 17.500315 M 28.999612 17.500315 L 29.999924 17.500315 M 3.000079 18.499768 L 4.999845 18.499768 M 6.000157 18.499768 L 6.99961 18.499768 M 7.999923 18.499768 L 11.000001 18.499768 M 12.000314 18.499768 L 12.999767 18.499768 M 14.00008 18.499768 L 15.000392 18.499768 M 17.999611 18.499768 L 18.999924 18.499768 M 20.000236 18.499768 L 23.000315 18.499768 M 26.000393 18.499768 L 28.000159 18.499768 M 28.999612 18.499768 L 29.999924 18.499768 M 4.999845 19.500081 L 6.000157 19.500081 M 9.999689 19.500081 L 12.000314 19.500081 M 12.999767 19.500081 L 14.00008 19.500081 M 15.000392 19.500081 L 15.999845 19.500081 M 17.000158 19.500081 L 20.000236 19.500081 M 25.00008 19.500081 L 26.000393 19.500081 M 26.999846 19.500081 L 29.999924 19.500081 M 1.999766 20.500394 L 3.000079 20.500394 M 4.000392 20.500394 L 9.000236 20.500394 M 9.999689 20.500394 L 12.000314 20.500394 M 12.999767 20.500394 L 15.000392 20.500394 M 17.000158 20.500394 L 17.999611 20.500394 M 18.999924 20.500394 L 20.000236 20.500394 M 22.000002 20.500394 L 23.000315 20.500394 M 23.999768 20.500394 L 26.999846 20.500394 M 28.000159 20.500394 L 28.999612 20.500394 M 4.000392 21.499847 L 4.999845 21.499847 M 6.99961 21.499847 L 7.999923 21.499847 M 9.000236 21.499847 L 9.999689 21.499847 M 11.000001 21.499847 L 12.000314 21.499847 M 14.00008 21.499847 L 15.000392 21.499847 M 18.999924 21.499847 L 20.000236 21.499847 M 23.999768 21.499847 L 26.999846 21.499847 M 28.000159 21.499847 L 28.999612 21.499847 M 3.000079 22.500159 L 4.000392 22.500159 M 6.99961 22.500159 L 9.000236 22.500159 M 9.999689 22.500159 L 12.000314 22.500159 M 12.999767 22.500159 L 15.999845 22.500159 M 17.000158 22.500159 L 17.999611 22.500159 M 18.999924 22.500159 L 20.999689 22.500159 M 22.000002 22.500159 L 28.999612 22.500159 M 9.999689 23.499612 L 11.000001 23.499612 M 12.000314 23.499612 L 14.00008 23.499612 M 15.000392 23.499612 L 17.000158 23.499612 M 22.000002 23.499612 L 23.000315 23.499612 M 26.000393 23.499612 L 31.000237 23.499612 M 1.999766 24.499925 L 9.000236 24.499925 M 9.999689 24.499925 L 12.000314 24.499925 M 12.999767 24.499925 L 15.999845 24.499925 M 20.000236 24.499925 L 23.000315 24.499925 M 23.999768 24.499925 L 25.00008 24.499925 M 26.000393 24.499925 L 28.000159 24.499925 M 28.999612 24.499925 L 29.999924 24.499925 M 1.999766 25.500238 L 3.000079 25.500238 M 7.999923 25.500238 L 9.000236 25.500238 M 9.999689 25.500238 L 12.000314 25.500238 M 12.999767 25.500238 L 14.00008 25.500238 M 20.000236 25.500238 L 20.999689 25.500238 M 22.000002 25.500238 L 23.000315 25.500238 M 26.000393 25.500238 L 28.000159 25.500238 M 28.999612 25.500238 L 31.000237 25.500238 M 1.999766 26.499691 L 3.000079 26.499691 M 4.000392 26.499691 L 6.99961 26.499691 M 7.999923 26.499691 L 9.000236 26.499691 M 12.000314 26.499691 L 12.999767 26.499691 M 14.00008 26.499691 L 15.000392 26.499691 M 15.999845 26.499691 L 17.999611 26.499691 M 18.999924 26.499691 L 20.000236 26.499691 M 22.000002 26.499691 L 26.999846 26.499691 M 28.000159 26.499691 L 29.999924 26.499691 M 1.999766 27.500003 L 3.000079 27.500003 M 4.000392 27.500003 L 6.99961 27.500003 M 7.999923 27.500003 L 9.000236 27.500003 M 9.999689 27.500003 L 12.999767 27.500003 M 14.00008 27.500003 L 15.000392 27.500003 M 15.999845 27.500003 L 18.999924 27.500003 M 20.999689 27.500003 L 22.000002 27.500003 M 23.000315 27.500003 L 23.999768 27.500003 M 25.00008 27.500003 L 28.000159 27.500003 M 29.999924 27.500003 L 31.000237 27.500003 M 1.999766 28.500316 L 3.000079 28.500316 M 4.000392 28.500316 L 6.99961 28.500316 M 7.999923 28.500316 L 9.000236 28.500316 M 9.999689 28.500316 L 12.999767 28.500316 M 15.999845 28.500316 L 17.000158 28.500316 M 18.999924 28.500316 L 20.999689 28.500316 M 22.000002 28.500316 L 23.000315 28.500316 M 25.00008 28.500316 L 26.000393 28.500316 M 28.000159 28.500316 L 28.999612 28.500316 M 29.999924 28.500316 L 31.000237 28.500316 M 1.999766 29.499769 L 3.000079 29.499769 M 7.999923 29.499769 L 9.000236 29.499769 M 12.000314 29.499769 L 12.999767 29.499769 M 14.00008 29.499769 L 15.999845 29.499769 M 17.999611 29.499769 L 18.999924 29.499769 M 22.000002 29.499769 L 23.999768 29.499769 M 25.00008 29.499769 L 26.000393 29.499769 M 26.999846 29.499769 L 28.000159 29.499769 M 28.999612 29.499769 L 29.999924 29.499769 M 1.999766 30.500082 L 9.000236 30.500082 M 9.999689 30.500082 L 11.000001 30.500082 M 14.00008 30.500082 L 15.000392 30.500082 M 17.000158 30.500082 L 17.999611 30.500082 M 20.000236 30.500082 L 25.00008 30.500082 M 28.999612 30.500082 L 29.999924 30.500082 " stroke="#000000" stroke-width="1" stroke-opacity="1" stroke-miterlimit="4"/></svg>